<svg width="1024" height="1025" viewBox="0 0 1024 1025" version="1.1" xmlns="http://www.w3.org/2000/svg">
    <path d="M663.794,441.204L638.243,445.169L635.141,419.499C619.734,291.988 511.075,195 381.5,195C240.391,195 126,309.391 126,450.5C126,591.609 240.391,706 381.5,706C418.707,706 454.744,698.058 487.795,682.914L511.3,672.145L521.273,695.998C549.906,764.478 616.996,810 692.5,810C794.949,810 878,726.949 878,624.5C878,522.051 794.949,439 692.5,439C682.811,439 673.224,439.741 663.794,441.204ZM692.5,389C822.563,389 928,494.437 928,624.5C928,754.563 822.563,860 692.5,860C605.148,860 526.661,811.995 485.925,737.681C452.786,749.735 417.57,756 381.5,756C212.777,756 76,619.223 76,450.5C76,281.777 212.777,145 381.5,145C528.133,145 652.34,248.846 680.865,389.283C684.731,389.095 688.61,389 692.5,389ZM656.127,391.795L681.678,387.83L684.78,413.501C686.256,425.717 687,438.066 687,450.5C687,571.156 616.403,678.988 508.622,728.37L485.117,739.14L475.143,715.286C463.219,686.768 457,656.046 457,624.5C457,507.988 542.137,409.484 656.127,391.795ZM507,624.5C507,639.987 508.894,655.193 512.583,669.876C588.626,624.403 637,541.852 637,450.5C637,449.477 636.994,448.455 636.982,447.434C561.038,471.175 507,542.135 507,624.5Z"/>
</svg>
