<svg width="260" height="65" viewBox="0 0 260 65" version="1.1" xmlns="http://www.w3.org/2000/svg" aria-labelledby="logo-title">
    <title id="logo-title">energybubble</title>
    <path d="M233.105,38.524C229.166,38.524 226.891,35.82 225.946,31.117C224.341,32.36 222.149,33.043 219.984,33.043C219.338,33.043 218.693,32.975 218.048,32.839C216.022,37.429 212.889,40.527 209.099,40.527C205.147,40.527 203.234,36.961 202.795,31.416C201.237,32.47 199.224,33.043 197.245,33.043C196.6,33.043 195.955,32.975 195.31,32.839C193.284,37.429 190.151,40.527 186.361,40.527C182.837,40.527 180.92,37.666 180.236,33.006C177.684,36.362 174.614,38.731 172.196,38.731C169.619,38.731 167.04,36.872 165.96,34.409C162.103,38.009 159.818,39.554 157.137,39.554C153.8,39.554 152.234,36.814 152.234,32.762C152.234,32.501 152.253,32.159 152.289,31.762C150.821,32.597 149.039,33.043 147.296,33.043C146.651,33.043 146.005,32.975 145.36,32.839C143.334,37.429 140.202,40.527 136.411,40.527C132.59,40.527 130.67,37.184 130.151,31.907C129.739,32.317 129.271,32.746 128.746,33.196C128.012,33.827 127.181,34.489 126.217,35.22C125.849,35.498 121.668,38.544 120.834,39.241C122.855,45.343 123.944,50.202 123.944,54.466C123.944,61.682 120.232,65 112.779,65C106.062,65 101.315,62.029 101.315,56.262C101.315,52.582 103.364,49.064 107.079,45.603C109.714,43.149 112.333,41.335 117.107,38.384C117.04,38.001 116.932,37.524 116.779,36.91C116.753,36.804 116.725,36.694 116.695,36.575C116.676,36.499 116.521,35.899 116.431,35.546C113.441,38.121 110.168,39.854 107.411,39.854C104.657,39.854 102.583,37.932 102.583,35.232C102.583,35.008 102.606,34.731 102.651,34.408C100.189,36.619 96.789,39.171 94.956,40.311C95.032,40.758 95.099,41.139 95.248,41.982C96.023,46.376 96.285,48.367 96.285,50.873C96.285,57.901 92.244,64.401 86.238,64.401C81.874,64.401 77.832,59.97 77.832,55.438C77.832,52.163 79.642,48.968 82.932,45.774C85.284,43.489 87.726,41.708 91.912,38.983L91.281,34.268C88.819,35.999 86.374,37.01 84.076,37.01C81.774,37.01 79.955,35.906 79.101,34.039C76.894,37.14 73.937,39.105 70.955,39.105C67.565,39.105 66.202,36.706 66.202,32.612C66.202,31.077 66.354,29.569 66.677,27.572C64.479,28.996 63.501,29.346 61.562,29.231C59.013,33.784 53.876,37.609 49.634,37.609C46.425,37.609 43.952,35.778 42.74,32.818C40.241,37.428 36.97,40.677 33.903,40.677C30.481,40.677 29.055,38.382 28.619,34.01C28.547,33.285 28.519,32.838 28.445,31.404C28.295,28.498 28.077,27.58 27.343,27.58C26.366,27.58 25.184,28.372 23.792,29.864C23.029,30.683 22.228,31.68 21.288,32.953C20.846,33.552 19.009,36.126 18.589,36.684C17.684,37.883 17.144,38.432 16.756,38.432C15.985,38.432 15.283,37.538 15.283,36.728C15.283,36.367 15.384,36.151 15.68,35.754C16.1,35.164 16.407,34.249 16.612,33.079C13.95,35.824 10.599,37.609 7.661,37.609C3.056,37.609 0,33.757 0,28.795C0,22.349 3.838,17.363 8.481,17.363C10.747,17.363 12.116,19 12.116,21.386C12.116,25.825 7.542,30.17 3.121,29.984C3.625,32.849 5.395,34.576 8.108,34.576C10.685,34.576 12.919,33.275 15.104,30.95C15.69,30.327 16.095,29.843 16.923,28.809C16.92,27.998 16.864,27.329 16.7,25.854C16.533,24.339 16.477,23.665 16.476,22.819L16.476,22.808C16.476,21.599 17.272,20.581 18.396,20.581C19.714,20.581 20.299,22.495 20.414,25.734C20.454,26.858 20.433,28.012 20.372,29.338C20.365,29.489 20.349,29.807 20.336,30.067C23.574,26.333 25.769,24.548 28.237,24.548C29.699,24.548 30.61,25.27 31.112,26.645C31.489,27.678 31.61,28.783 31.705,31.11C31.709,31.207 31.709,31.207 31.713,31.305C31.807,33.642 31.903,34.614 32.223,35.571C32.634,36.802 33.362,37.42 34.574,37.42C36.487,37.42 38.017,35.792 39.798,32.512C39.981,32.176 40.162,31.832 40.398,31.377C40.47,31.237 40.47,31.237 40.542,31.099C40.613,30.961 40.613,30.961 40.683,30.825C40.796,30.606 40.879,30.446 40.959,30.293C41.385,29.48 41.687,28.947 41.976,28.523C42.114,22.976 45.761,17.363 50.454,17.363C52.719,17.363 54.089,19 54.089,21.386C54.089,25.825 49.515,30.17 45.093,29.984C45.598,32.849 47.368,34.576 50.081,34.576C52.658,34.576 54.892,33.275 57.077,30.95C57.52,30.479 57.941,29.989 58.427,29.391C58.501,29.3 59.178,28.455 59.423,28.157C59.211,27.496 59.119,26.848 59.119,26.176C59.119,23.27 61.263,17.737 63.276,17.737C64.039,17.737 64.601,18.532 64.601,19.366C64.601,20.047 64.378,21.175 63.976,22.703C63.902,22.982 63.823,23.274 63.737,23.58C63.627,23.978 63.023,26.056 62.896,26.488C64.532,26.358 67.632,24.083 67.919,22.856C68.211,21.487 69.09,20.357 70.21,20.357C70.967,20.357 71.534,21.21 71.534,22.06C71.534,22.722 71.192,23.431 70.678,23.946C69.768,24.92 68.999,28.98 68.999,31.415C68.999,34.26 69.81,35.923 71.924,35.923C74.111,35.923 75.708,34.559 77.32,31.908C77.638,31.384 78.679,29.512 78.884,29.19C80.5,22.755 87.572,15.716 93.022,15.716C95.686,15.716 97.111,17.544 96.738,20.232C97.046,20.71 97.18,21.64 97.18,22.584C97.18,22.961 97.155,23.35 97.107,23.749C96.926,25.247 96.436,26.815 95.678,28.585C95.651,28.649 94.198,31.773 94.198,32.014C94.198,32.837 94.252,33.692 94.365,34.845C94.391,35.112 94.414,35.341 94.462,35.797C94.549,36.636 94.591,37.048 94.627,37.476C98.083,35.31 102.258,31.666 104.189,28.908C105.617,25.175 107.279,22.751 108.827,22.751C109.51,22.751 110.002,23.196 110.002,23.856C110.002,24.526 109.586,25.174 108.995,25.526C106.965,28.637 105.604,31.858 105.604,34.334C105.604,36.122 106.493,36.896 108.38,36.896C111.013,36.896 114.12,34.833 115.996,32.204C115.939,31.783 115.927,31.427 115.927,30.666C115.927,26.699 117.388,21.554 119.712,21.554C120.786,21.554 121.185,22.776 121.185,24.38C121.185,24.515 121.182,24.651 121.175,24.789C121.114,26.07 120.804,27.336 120.209,29.081C120.261,28.928 119.668,30.633 119.544,31.029C119.344,31.666 119.247,32.118 119.247,32.463C119.247,33.289 119.375,33.977 119.718,35.29C119.736,35.36 119.736,35.36 119.754,35.429C119.89,35.949 119.962,36.236 120.026,36.524C124.327,34.022 128.086,30.947 129.945,28.005C130.481,19.069 134.372,6.402 138.626,1.614C139.569,0.581 140.65,0 141.854,0C144.688,0 146.16,2.891 146.16,6.493C146.16,13.411 140.571,22.062 133.039,29.226L133.039,29.544C133.039,33.561 134.517,37.495 137.157,37.495C139.277,37.495 141.939,34.639 142.889,31.992C140.367,30.307 138.815,28.085 138.815,25.577C138.815,23.27 140.079,21.629 142.226,21.629C144.911,21.629 146.309,24.48 146.309,27.897C146.309,28.319 146.277,28.743 146.215,29.224C146.172,29.552 146.168,29.58 146.031,30.405C146.419,30.461 146.616,30.485 146.855,30.506C147.065,30.525 147.259,30.535 147.445,30.535C149.311,30.535 150.663,29.986 151.928,28.955C152.094,28.82 152.257,28.679 152.441,28.512C152.528,28.433 152.774,28.206 152.862,28.125C153.701,24.239 154.929,21.704 156.466,21.704C157.358,21.704 157.939,22.287 157.939,23.182C157.939,23.552 157.842,23.956 157.659,24.405C157.504,24.784 157.299,25.174 157.013,25.654C156.929,25.795 156.524,26.456 156.429,26.618C155.842,27.6 155.181,30.974 155.181,32.537C155.181,34.86 156.123,36.672 157.882,36.672C160.144,36.672 163.189,34.149 165.281,31.223C165.291,27.437 166.66,22.751 168.916,22.751C169.974,22.751 170.538,23.748 170.538,24.979C170.538,26.188 170.177,27.331 169.444,28.853C169.428,28.887 168.835,30.082 168.703,30.379C168.482,30.872 168.376,31.221 168.376,31.49C168.376,33.337 170.526,35.624 172.345,35.624C174.403,35.624 176.05,34.322 177.905,31.749C178.055,31.541 179.533,29.368 179.969,28.815C180.069,20.366 184.119,6.63 188.575,1.614C189.519,0.581 190.599,0 191.803,0C194.637,0 196.109,2.891 196.109,6.493C196.109,13.411 190.52,22.062 182.988,29.226L182.988,29.544C182.988,33.561 184.466,37.495 187.106,37.495C189.227,37.495 191.889,34.639 192.838,31.992C190.317,30.307 188.764,28.085 188.764,25.577C188.764,23.27 190.028,21.629 192.176,21.629C194.86,21.629 196.259,24.48 196.259,27.897C196.259,28.319 196.227,28.743 196.164,29.224C196.122,29.552 196.118,29.58 195.981,30.405C196.393,30.464 196.601,30.49 196.853,30.511C197.045,30.527 197.223,30.535 197.395,30.535C199.26,30.535 200.613,29.986 201.878,28.955C202.137,28.744 202.222,28.668 202.722,28.207C203.025,19.59 206.977,6.495 211.313,1.614C212.257,0.581 213.337,0 214.541,0C217.376,0 218.848,2.891 218.848,6.493C218.848,13.411 213.258,22.062 205.727,29.226L205.727,29.544C205.727,33.561 207.204,37.495 209.845,37.495C211.965,37.495 214.627,34.639 215.576,31.992C213.055,30.307 211.502,28.085 211.502,25.577C211.502,23.27 212.766,21.629 214.914,21.629C217.598,21.629 218.997,24.48 218.997,27.897C218.997,28.319 218.965,28.743 218.902,29.224C218.86,29.552 218.856,29.58 218.719,30.405C219.403,30.502 219.731,30.535 220.133,30.535C221.998,30.535 223.351,29.986 224.616,28.955C224.783,28.82 224.946,28.678 225.132,28.509C225.214,28.434 225.439,28.227 225.539,28.134C225.474,27.326 225.444,26.514 225.444,25.727C225.444,22.637 226.336,16.222 227.647,11.249C229.455,4.394 231.876,0.299 234.894,0.299C237.115,0.299 238.455,2.693 238.455,5.37C238.455,11.957 234.321,21.045 228.965,27.97L228.799,28.215C228.648,28.367 228.574,28.575 228.55,28.865C228.541,28.97 228.539,29.057 228.539,29.244C228.539,31.884 231.547,36.073 233.85,36.073C235.804,36.073 237.218,34.684 238.664,31.952C238.75,31.788 239.99,29.265 240.355,28.669C240.418,23.107 244.095,17.363 248.835,17.363C251.101,17.363 252.47,19 252.47,21.386C252.47,25.825 247.896,30.17 243.475,29.984C243.979,32.849 245.749,34.576 248.462,34.576C251.039,34.576 253.273,33.275 255.458,30.95C255.845,30.539 256.22,30.108 256.629,29.61C256.871,29.316 257.638,28.36 257.575,28.437C258.288,27.554 258.605,27.242 258.899,27.242C259.536,27.242 260,27.785 260,28.421C260,28.567 259.962,28.707 259.838,29.077C257.696,33.544 252.375,37.609 248.015,37.609C244.929,37.609 242.523,35.918 241.261,33.141C239.471,36.299 236.186,38.524 233.105,38.524ZM4.455,27.017C6.757,27.017 9.393,24.547 9.393,22.284C9.393,21.202 8.698,19.946 7.885,19.946C5.326,19.946 3.329,23.416 3.101,26.769C3.478,26.94 3.929,27.017 4.455,27.017ZM46.428,27.017C48.73,27.017 51.366,24.547 51.366,22.284C51.366,21.202 50.671,19.946 49.857,19.946C47.298,19.946 45.301,23.416 45.074,26.769C45.45,26.94 45.902,27.017 46.428,27.017ZM94.048,20.245C94.105,20.188 94.308,19.694 94.308,19.59C94.308,18.788 93.685,18.449 92.65,18.449C87.725,18.449 81.524,25.968 81.524,31.265C81.524,33.178 82.752,34.202 84.822,34.202C86.941,34.202 89.212,32.887 91.177,30.837C91.254,27.045 92.091,24.078 94.048,20.245ZM80.406,55.438C80.406,58.734 83.478,61.818 86.76,61.818C88.931,61.818 91.028,60.014 92.385,57.472C93.192,55.976 93.488,53.828 93.488,51.023C93.488,48.348 93.146,45.702 92.406,41.873C85.295,45.932 80.406,50.653 80.406,55.438ZM104.486,56.187C104.486,60.503 108.184,62.417 113.748,62.417C118.889,62.417 121.146,60.32 121.146,55.289C121.146,51.403 120.026,46.737 117.998,40.81C110.233,45.07 104.486,50.679 104.486,56.187ZM143.139,6.643C143.139,4.681 142.623,3.182 141.406,3.182C141.202,3.182 140.969,3.32 140.7,3.571C140.61,3.654 140.322,3.952 140.383,3.89C137.242,7.164 134.198,17.435 133.016,25.737C138.96,19.862 143.139,12.707 143.139,6.643ZM143.661,27.822C143.661,26.291 143.026,24.7 142.039,24.662C141.74,24.859 141.538,25.24 141.538,25.577C141.538,26.98 142.265,28.195 143.543,29.158C143.631,28.527 143.661,28.209 143.661,27.822ZM193.088,6.643C193.088,4.681 192.572,3.182 191.356,3.182C191.152,3.182 190.918,3.32 190.649,3.571C190.56,3.654 190.271,3.952 190.332,3.89C187.191,7.164 184.148,17.435 182.966,25.737C188.91,19.862 193.088,12.707 193.088,6.643ZM193.61,27.822C193.61,26.291 192.975,24.7 191.989,24.662C191.69,24.859 191.487,25.24 191.487,25.577C191.487,26.98 192.215,28.195 193.493,29.158C193.58,28.527 193.61,28.209 193.61,27.822ZM215.826,6.643C215.826,4.681 215.31,3.182 214.094,3.182C213.89,3.182 213.656,3.32 213.387,3.571C213.298,3.654 213.009,3.952 213.07,3.89C209.93,7.164 206.886,17.435 205.704,25.737C211.648,19.862 215.826,12.707 215.826,6.643ZM216.348,27.822C216.348,26.291 215.713,24.7 214.727,24.662C214.428,24.859 214.225,25.24 214.225,25.577C214.225,26.98 214.953,28.195 216.231,29.158C216.318,28.527 216.348,28.209 216.348,27.822ZM235.806,6.119C235.806,4.77 235.395,3.407 234.67,3.407C234.345,3.407 234.143,3.542 233.719,3.967L233.716,3.97C230.298,7.152 228.359,15.999 228.465,23.332L228.465,24.255C232.359,18.517 235.806,10.698 235.806,6.119ZM244.809,27.017C247.111,27.017 249.747,24.547 249.747,22.284C249.747,21.202 249.052,19.946 248.239,19.946C245.679,19.946 243.682,23.416 243.455,26.769C243.832,26.94 244.283,27.017 244.809,27.017Z" fill="currentColor"/>
</svg>