<svg class="icon--rss" width="32" height="32" viewBox="0 0 32 32" version="1.1" xmlns="http://www.w3.org/2000/svg" role="img" aria-labelledby="rss-title">
    <title id="rss-title">RSS feed</title>
    <path id="Combined-Shape-Copy" d="M2,2c15.464,0 28,12.536 28,28l-6.129,0c-0.231,-11.975 -9.896,-21.64 -21.871,-21.871l0,-6.129Zm0,9.63c0.145,-0.003 0.291,-0.005 0.438,-0.005c9.906,0 17.937,8.031 17.937,17.938c0,0.146 -0.002,0.292 -0.005,0.437l-6.12,0c0,-6.765 -5.485,-12.25 -12.25,-12.25l0,-6.12Zm3.938,18.37c-2.175,0 -3.938,-1.763 -3.938,-3.937c0,-2.175 1.763,-3.938 3.938,-3.938c2.174,0 3.937,1.763 3.937,3.938c0,2.174 -1.763,3.937 -3.937,3.937Z" fill="currentColor"/>
</svg>