<svg class="icon--twitter" width="32" height="32" viewBox="0 0 32 32" version="1.1" xmlns="http://www.w3.org/2000/svg" role="img" aria-labelledby="twitter-title">
    <title id="twitter-title">Twitter</title>
    <path id="twitter" d="M32,7.078c-1.177,0.522 -2.443,0.875 -3.771,1.033c1.356,-0.812 2.397,-2.098 2.887,-3.631c-1.269,0.752 -2.674,1.298 -4.169,1.593c-1.198,-1.276 -2.904,-2.073 -4.792,-2.073c-3.626,0 -6.565,2.939 -6.565,6.564c0,0.514 0.058,1.015 0.17,1.495c-5.457,-0.273 -10.294,-2.887 -13.532,-6.858c-0.565,0.97 -0.889,2.097 -0.889,3.3c0,2.277 1.159,4.286 2.921,5.463c-1.077,-0.034 -2.089,-0.329 -2.974,-0.821c-0.001,0.028 -0.001,0.055 -0.001,0.083c0,3.18 2.263,5.833 5.267,6.436c-0.551,0.15 -1.131,0.23 -1.73,0.23c-0.423,0 -0.834,-0.041 -1.235,-0.117c0.835,2.607 3.26,4.505 6.133,4.558c-2.247,1.76 -5.078,2.81 -8.154,2.81c-0.53,0 -1.052,-0.031 -1.566,-0.092c2.905,1.862 6.356,2.949 10.064,2.949c12.075,0 18.679,-10.002 18.679,-18.675c0,-0.285 -0.006,-0.568 -0.019,-0.85c1.283,-0.925 2.396,-2.081 3.276,-3.397Z" fill="currentColor"/>
</svg>